<svg version="1.1" id="prefix__Layer_1" xmlns="http://www.w3.org/2000/svg" xmlns:xlink="http://www.w3.org/1999/xlink" x="0" y="0" viewBox="0 0 593.1 285.2" xml:space="preserve"><style>.prefix__st1{clip-path:url(#prefix__SVGID_2_);fill:#fff}.prefix__st2{clip-path:url(#prefix__SVGID_4_)}.prefix__st3{fill:#fff}</style><path fill="#6f6e6f" d="M0 0h593.1v285.2H0z"/><defs><path id="prefix__SVGID_1_" d="M156 57.9h275.2v163.6H156z"/></defs><clipPath id="prefix__SVGID_2_"><use xlink:href="#prefix__SVGID_1_" overflow="visible"/></clipPath><path class="prefix__st1" d="M407.6 190.5c0 .9-.8 1.7-1.7 1.7H181.3c-.9 0-1.7-.8-1.7-1.7V79c0-.9.8-1.7 1.7-1.7h224.6c.9 0 1.7.8 1.7 1.7v111.5zm-111.3 11.9h-5.1c-.9 0-1.7-.8-1.7-1.7 0-.9.8-1.7 1.7-1.7h5.1c.9 0 1.7.8 1.7 1.7 0 .9-.8 1.7-1.7 1.7M410.8 70.9H176.4c-1.9 0-3.4 1.5-3.4 3.4v131.5c0 1.9 1.5 3.4 3.4 3.4h234.3c1.9 0 3.4-1.5 3.4-3.4V74.3c.1-1.9-1.4-3.4-3.3-3.4M255 211.9h77.2v6.9H255z"/><path class="prefix__st1" d="M338.8 220.5h-90.5c-.9 0-1.7-.8-1.7-1.7s.8-1.7 1.7-1.7h90.5c.9 0 1.7.8 1.7 1.7s-.7 1.7-1.7 1.7"/><g><defs><path id="prefix__SVGID_3_" d="M193.4 104.7h231.5v61.7H193.4z"/></defs><clipPath id="prefix__SVGID_4_"><use xlink:href="#prefix__SVGID_3_" overflow="visible"/></clipPath><g class="prefix__st2"><path class="prefix__st3" d="M248.9 153.1h-4.3L227 126h-.2c.2 3.2.4 6.1.4 8.8v18.4h-3.5v-32.3h4.2l17.6 27h.2c0-.4-.1-1.7-.2-3.8-.1-2.2-.1-3.7-.1-4.6V121h3.5v32.1zM267.5 153.6c-3.6 0-6.4-1.1-8.5-3.3-2.1-2.2-3.1-5.2-3.1-9.1 0-3.9 1-7 2.9-9.3 1.9-2.3 4.5-3.4 7.7-3.4 3 0 5.4 1 7.2 3 1.8 2 2.7 4.6 2.7 7.9v2.3h-16.7c.1 2.8.8 5 2.2 6.5s3.3 2.2 5.8 2.2c2.6 0 5.2-.5 7.7-1.6v3.3c-1.3.6-2.5 1-3.7 1.2s-2.5.3-4.2.3zm-1-22.1c-1.9 0-3.5.6-4.7 1.9-1.2 1.3-1.8 3-2 5.3h12.7c0-2.3-.5-4.1-1.5-5.3s-2.6-1.9-4.5-1.9zM290.5 150.5c.6 0 1.3 0 1.9-.1.6-.1 1.1-.2 1.4-.3v2.8c-.4.2-1 .3-1.8.5-.8.1-1.5.2-2.1.2-4.7 0-7-2.5-7-7.4v-14.4h-3.5V130l3.5-1.5 1.5-5.2h2.1v5.6h7v2.9h-7V146c0 1.5.3 2.6 1 3.4s1.8 1.1 3 1.1zM306.5 150.5c.6 0 1.3 0 1.9-.1.6-.1 1.1-.2 1.4-.3v2.8c-.4.2-1 .3-1.8.5s-1.5.2-2.1.2c-4.7 0-7-2.5-7-7.4v-14.4h-3.5V130l3.5-1.5 1.5-5.2h2.1v5.6h7v2.9h-7V146c0 1.5.3 2.6 1 3.4s1.8 1.1 3 1.1zM312.6 142.7v-3.4h10.9v3.4h-10.9z"/></g><g class="prefix__st2"><path class="prefix__st3" d="M339.3 153.1h-6.9v-19.8h-6.2v-5.6h19.2v5.6h-6.2v19.8zM366.2 127.7h7.7l-8.3 25.4h-8.1l-8.3-25.4h7.7l3.5 12.9c.7 2.9 1.1 4.9 1.2 6 .1-.8.2-1.8.5-3 .2-1.2.5-2.2.6-2.9l3.5-13z"/></g></g></svg>